<svg width="264" height="264" viewBox="0 0 264 264" fill="none" xmlns="http://www.w3.org/2000/svg">
<path d="M227.689 202.281C242.194 182.574 250.764 158.229 250.764 131.882C250.764 66.2254 197.539 13 131.882 13C66.2254 13 13 66.2254 13 131.882C13 177.609 38.8167 217.306 76.6695 237.193V69.9265C76.6695 69.0418 76.9349 68.334 77.4657 67.8032C78.1735 67.0954 78.9697 66.7415 79.8544 66.7415H104.272C105.865 66.7415 107.103 67.4493 107.988 68.8648L151.25 134.421C151.604 134.775 151.958 134.952 152.312 134.952C152.666 134.952 152.931 134.775 153.108 134.421L196.37 68.8648C197.255 67.4493 198.493 66.7415 200.086 66.7415H224.504C225.388 66.7415 226.096 67.0954 226.627 67.8032C227.335 68.334 227.689 69.0418 227.689 69.9265V202.281Z" fill="white"/>
<path d="M196.901 231.425V122.743C196.901 122.213 196.635 121.859 196.105 121.682C195.751 121.505 195.485 121.682 195.308 122.213L162.132 173.172C161.247 174.587 160.009 175.295 158.416 175.295H146.207C144.615 175.295 143.376 174.587 142.492 173.172L109.05 122.478C108.873 121.947 108.519 121.77 107.988 121.947C107.634 122.124 107.457 122.478 107.457 123.009V248.253C115.34 249.899 123.51 250.764 131.882 250.764C155.88 250.764 178.217 243.654 196.901 231.425Z" fill="white"/>
</svg>
